<svg xmlns="http://www.w3.org/2000/svg" viewBox="0 0 1600 1000" preserveAspectRatio="xMidYMid slice"><defs><linearGradient id="sky" x2="0" y2="1"><stop stop-color="#101c32"/><stop offset=".55" stop-color="#536d87"/><stop offset="1" stop-color="#e2ad8c"/></linearGradient><linearGradient id="lake" x2="0" y2="1"><stop stop-color="#63868e"/><stop offset="1" stop-color="#122c3c"/></linearGradient><linearGradient id="ridge" x2="0" y2="1"><stop stop-color="#70899b"/><stop offset="1" stop-color="#263c53"/></linearGradient><radialGradient id="glow"><stop stop-color="#f3c9a0" stop-opacity=".5"/><stop offset="1" stop-color="#f3c9a0" stop-opacity="0"/></radialGradient></defs><path fill="url(#sky)" d="M0 0h1600v1000H0z"/><ellipse cx="1190" cy="390" rx="500" ry="340" fill="url(#glow)"/><circle cx="1220" cy="260" r="58" fill="#e6c6a6" opacity=".6"/><g fill="#e8e7dc" opacity=".65"><circle cx="160" cy="110" r="1.5"/><circle cx="310" cy="210" r="1"/><circle cx="760" cy="95" r="2"/><circle cx="890" cy="150" r="1"/><circle cx="1450" cy="110" r="1.5"/></g><path d="M0 600L200 390l105 125 205-295 175 240 145-130 230 235 150-195 210 230 180-170v570H0z" fill="#81909e"/><path d="M0 670l250-240 145 120 240-380 245 330 100-85 290 270 145-140 185 120v335H0z" fill="url(#ridge)"/><path d="M491 399l144-229 126 171-86-50-35 34-31-47-44 91z" fill="#ced8dd" opacity=".9"/><path d="M0 660q320-35 700 0t900 0v340H0z" fill="url(#lake)"/><path d="M350 715q450-20 950 0M470 745q250-10 710 0M610 780h650M750 828h420" fill="none" stroke="#a7bbc0" stroke-width="2" opacity=".2"/><path d="M0 555l90 70 100 30 190 35-90 60-180 33L0 820zM1600 545l-140 85-110 45-110 40 150 60 210 65z" fill="#122f32"/><g fill="#0c242a"><path d="M0 940V360l30 100-20-10 50 115-35-5 65 130H45l85 180H70l90 170zM1600 980V310l-32 110 20-8-55 125 35-10-75 160h50l-100 200h80l-100 160z"/><path d="M100 1000V590l25 80h-20l45 95h-25l60 135h-40l55 100zM1460 1000V530l-28 100h18l-48 110h25l-65 140h45l-75 120z"/><path d="M0 900q200-35 430 100H0zM1600 870q-250 20-490 130h490z"/></g></svg>
